<?xml version="1.0" encoding="iso-8859-1"?>
<!-- Generator: Adobe Illustrator 19.0.0, SVG Export Plug-In . SVG Version: 6.00 Build 0)  -->
<svg xmlns="http://www.w3.org/2000/svg" xmlns:xlink="http://www.w3.org/1999/xlink" version="1.1" id="Layer_1" x="0px" y="0px" viewBox="0 0 512 512" style="enable-background:new 0 0 512 512;" xml:space="preserve" width="512px" height="512px">
<g>
	<g>
		<g>
			<path d="M256,0C114.839,0,0,114.839,0,256s114.839,256,256,256s256-114.839,256-256S397.161,0,256,0z M256,493.714     C124.92,493.714,18.286,387.081,18.286,256S124.92,18.286,256,18.286S493.714,124.92,493.714,256S387.081,493.714,256,493.714z" fill="#FFFFFF"/>
			<path d="M462,246.857H192v-91.429c0-3.5-2-6.696-5.143-8.223c-3.161-1.527-6.902-1.125-9.652,1.036l-128,100.571     c-2.205,1.732-3.491,4.384-3.491,7.187s1.286,5.455,3.491,7.187l128,100.571c1.643,1.295,3.643,1.955,5.652,1.955     c1.357,0,2.723-0.304,4-0.92c3.143-1.527,5.143-4.723,5.143-8.223v-91.429h270c5.054,0,9.143-4.089,9.143-9.143     S467.054,246.857,462,246.857z M173.714,337.759L69.652,256l104.062-81.759V337.759z" fill="#FFFFFF"/>
		</g>
	</g>
</g>
<g>
</g>
<g>
</g>
<g>
</g>
<g>
</g>
<g>
</g>
<g>
</g>
<g>
</g>
<g>
</g>
<g>
</g>
<g>
</g>
<g>
</g>
<g>
</g>
<g>
</g>
<g>
</g>
<g>
</g>
</svg>
